# xmcd CD database file
#
# Track frame offsets:
#	150
#	14532
#	33265
#	48025
#	63740
#	85825
#	100207
#	118772
#	132092
#	150592
#
# Disc length: 2253 seconds
#
# Revision: 0
# Processed by: cddbd v1.5.1PL0 Copyright (c) Steve Scherf et al.
# Submitted via: CDex 1.51
#
DISCID=7908cb0a
DTITLE=倉田まり子 - ファースト・アルバム あなたにめぐり逢えて・・・ KICS-8028
DYEAR=1994
DGENRE=JPop
TTITLE0=How！ワンダフル
TTITLE1=翼のない鳥
TTITLE2=落葉のメロディー
TTITLE3=サンセット・キッス
TTITLE4=あなたにめぐり逢えて
TTITLE5=グラジュエイション
TTITLE6=いつかあなたの歌が
TTITLE7=愛すれど悲し
TTITLE8=エンジェル・アイズ
TTITLE9=虹の未来
EXTD=YEAR: 1994
EXTT0=
EXTT1=
EXTT2=
EXTT3=
EXTT4=
EXTT5=
EXTT6=
EXTT7=
EXTT8=
EXTT9=
PLAYORDER=
